<?xml version="1.0" encoding="UTF-8"?>
<svg id="Calque_3" data-name="Calque 3" xmlns="http://www.w3.org/2000/svg" viewBox="0 0 1000 1000">
  <defs>
    <style>
      .cls-1 {
        fill: #41f9f2;
      }
    </style>
  </defs>
  <path class="cls-1" d="M429.73,535.16l-64.7,46.29c-.41-.1-.83-.18-1.25-.25l-110.02-17.11c-8.68-1.35-16.81,4.59-18.16,13.27l-.2,1.27c-1.35,8.68,4.59,16.81,13.27,18.16l77.96,12.12-65.55,46.91c-4.36-2.03-9.23-3.16-14.35-3.16-18.84,0-34.1,15.27-34.1,34.1s15.26,34.1,34.1,34.1,34.09-15.27,34.09-34.1c0-1.21-.06-2.41-.19-3.59l65.83-47.1-12.12,77.94c-1.35,8.68,4.6,16.81,13.28,18.16l1.26.2c8.68,1.35,16.81-4.6,18.16-13.27l17.1-109.99h0l45.58-33.07v-40.88Z"/>
  <path class="cls-1" d="M644.81,421.8l-.05.04c.21.05.45.09.05-.04Z"/>
  <path class="cls-1" d="M600.91,409.16l-.03.02-10.47,6.4-9.44,5.77v.21h0s-.79,41.56-.79,41.56l47.11-30.12,17.46-11.16c-.18-.04-.33-.1.06-.04l112.49,17.31c8.68,1.32,16.79-4.65,18.11-13.35l.2-1.27c1.32-8.68-4.65-16.78-13.34-18.11l-79.1-12.02,66.66-47.69c4.37,2.02,9.23,3.15,14.36,3.15,18.83,0,34.09-15.27,34.09-34.09s-15.26-34.11-34.09-34.11-34.1,15.28-34.1,34.11c0,1.2.06,2.4.19,3.58l-65.77,47.06,11.69-76.91c1.32-8.68-4.65-16.79-13.33-18.11l-1.27-.19c-8.69-1.32-16.8,4.64-18.12,13.33l-16.53,108.75-26.04,15.92Z"/>
  <path class="cls-1" d="M246.73,349.79c5.73,0,11.14-1.42,15.88-3.92l61.59,44.07-78.93,9.33c-8.72,1.03-14.96,8.93-13.93,17.66l.15,1.27c1.03,8.72,8.94,14.96,17.66,13.93l110.57-13.07c1.35-.16,2.64-.48,3.85-.95l65.78,44.76-.62-39.48-47.96-34.32-12.73-107.69c-1.03-8.72-8.94-14.96-17.66-13.93l-1.27.15c-8.73,1.03-14.96,8.94-13.93,17.66l9.19,77.76-63.6-45.49c.03-.61.05-1.22.05-1.84,0-18.83-15.26-34.1-34.09-34.1s-34.1,15.27-34.1,34.1,15.26,34.1,34.1,34.1Z"/>
  <path class="cls-1" d="M765.38,652.66c-4.5,0-8.8.87-12.74,2.46h-.01l-69.26-49.55,77.65-13.23c8.65-1.47,14.48-9.69,13-18.35l-.21-1.26c-1.48-8.66-9.69-14.49-18.35-13.01l-109.76,18.7c-.07.01-.15.03-.22.04l-39.1-27.97-21.86-15.64h0s-3.36-2.41-3.36-2.41v41.34l1.95,1.39h0s42.48,30.4,42.48,30.4h.01c.03.34.07.68.13,1.02l18.7,109.76c1.47,8.66,9.69,14.48,18.34,13l1.27-.21c8.66-1.48,14.48-9.69,13.01-18.35l-13.27-77.9,67.91,48.58c-.27,1.72-.41,3.49-.41,5.29,0,18.83,15.26,34.1,34.1,34.1s34.09-15.27,34.09-34.1-15.26-34.1-34.09-34.1Z"/>
  <path class="cls-1" d="M843.59,476.79c-9.74,0-17.99,6.36-20.82,15.15l-71.92-.57-32.03,32.03c-3.03,3.03-6.05,6.05-9.08,9.08h-20.37l-26.46-26.46h-118.68l-7.99-5.72,23-16.46h141.41c3.36,5.91,9.71,9.9,17,9.9s13.7-4.03,17.04-10c1.59-2.83,2.5-6.08,2.5-9.55,0-10.8-8.75-19.55-19.54-19.55-8.29,0-15.37,5.16-18.21,12.44-.05.12-.1.24-.14.36h-131.5v-63.14l36.66-43.28,1.25-1.48v-25.66c5.98-3.34,10.02-9.74,10.02-17.07,0-10.8-8.75-19.55-19.55-19.55s-19.54,8.75-19.54,19.55c0,7.01,3.7,13.17,9.25,16.62v27.59l-31.53,37.23-.18.21.18.09v47.44l-31.5,22.54v-136.73l78.06-78.06c6.21-6.21,6.21-16.28,0-22.49l-.91-.91c-6.21-6.21-16.28-6.21-22.49,0l-54.66,54.66v-81.43c10.61-5.78,17.8-17.03,17.8-29.96,0-18.83-15.26-34.1-34.1-34.1s-34.09,15.27-34.09,34.1c0,12.51,6.73,23.44,16.77,29.37v84.28l-56.92-56.92c-6.21-6.21-16.28-6.21-22.49,0l-.9.91c-6.22,6.21-6.22,16.28,0,22.49l78.73,78.73c.5.5,1.03.97,1.58,1.38v132.83l-33.62-24.06v-65.37l.18-1.21-.18-.21-31.53-37.22v-28.82c5.62-3.43,9.37-9.62,9.37-16.68,0-10.8-8.75-19.55-19.54-19.55s-19.55,8.75-19.55,19.55c0,7.28,3.99,13.64,9.9,16.99v27.03l1.25,1.48,36.66,43.28v85.39h-196.21l-2.55,3.06-21.17,23.4h-31.39c-2.23-9.71-10.93-16.95-21.32-16.95-12.08,0-21.88,9.79-21.88,21.88s9.8,21.88,21.88,21.88c8.74,0,16.28-5.12,19.78-12.53h44.75l21.73-24.02h199.87l22.79,16.3-8,5.72h-111.21l-26.46,26.46h-70.94c-1.16-9.68-9.4-17.18-19.39-17.18-10.8,0-19.55,8.75-19.55,19.54s8.75,19.55,19.55,19.55c6.88,0,12.94-3.56,16.41-8.95h75.1l28.17-26.89h90.8l-7.52,5.38-.24,92.53c-1.57,1.86-3.14,3.71-4.72,5.57-2.37,2.8-4.74,5.61-7.12,8.41-2.8,3.3-5.6,6.61-8.39,9.91-2.68,3.16-5.36,6.32-8.03,9.48-2.01,2.37-4.02,4.75-6.03,7.12-.79.93-1.58,1.87-2.37,2.8l-1.25,1.48v15.32c-5.91,3.35-9.9,9.71-9.9,16.99,0,10.8,8.75,19.55,19.55,19.55s19.54-8.75,19.54-19.55c0-7.06-3.75-13.25-9.37-16.68v-17.11l31.51-37.21.02-1.09v-65.62l30.62-21.91v131.28c-.55.42-1.08.88-1.58,1.38l-78.73,78.73c-6.22,6.21-6.22,16.28,0,22.49l.9.91c6.21,6.21,16.28,6.21,22.49,0l56.92-56.92v86.94c-10.04,5.93-16.77,16.86-16.77,29.37,0,18.84,15.26,34.1,34.09,34.1s34.1-15.26,34.1-34.1c0-12.93-7.19-24.18-17.8-29.96v-84.09l54.66,54.66c6.21,6.21,16.28,6.21,22.49,0l.91-.91c6.21-6.21,6.21-16.28,0-22.49l-78.06-78.06v-135.18l30.62,21.9v21.46c0,12.69.19,25.39-.05,38.07-.01.2-.01.42.06.61s.2.34.33.49c3.6,4.23,7.18,8.48,10.77,12.72,6.81,8.03,13.61,16.07,20.42,24.11v19.85c-6.17,3.28-10.37,9.78-10.37,17.26,0,10.8,8.75,19.55,19.54,19.55s19.55-8.75,19.55-19.55c0-6.86-3.54-12.9-8.9-16.38v-19.25l-1.25-1.48-36.65-43.28v-24.57h-.13v-61.41l-5.06-3.62h98.27l7.33,7,20.84,19.89h73.77c3.35,5.94,9.72,9.95,17.03,9.95,10.8,0,19.55-8.75,19.55-19.55s-8.75-19.54-19.55-19.54c-9.65,0-17.67,6.99-19.25,16.18h-30.98l27.09-27.09h66.93c2.83,8.79,11.08,15.16,20.82,15.16,12.08,0,21.88-9.8,21.88-21.88s-9.8-21.88-21.88-21.88Z"/>
</svg>